solid OpenSCAD_Model
  facet normal -0.97237 0.233445 0
    outer loop
      vertex 0.758623 20.2898 0
      vertex 0.689057 20 36.5
      vertex 0.758623 20.2898 45
    endloop
  endfacet
  facet normal -0.97237 0.233443 -1.4909e-008
    outer loop
      vertex 0.758623 20.2898 0
      vertex 0.665449 19.9017 35.5644
      vertex 0.689057 20 36.5
    endloop
  endfacet
  facet normal -0.97237 0.233446 1.48179e-008
    outer loop
      vertex 0.758623 20.2898 0
      vertex 0.595656 19.611 34.6697
      vertex 0.665449 19.9017 35.5644
    endloop
  endfacet
  facet normal -0.97237 0.233445 -9.29758e-009
    outer loop
      vertex 0.758623 20.2898 0
      vertex 0.482728 19.1406 33.855
      vertex 0.595656 19.611 34.6697
    endloop
  endfacet
  facet normal -0.97237 0.233446 1.87697e-008
    outer loop
      vertex 0.758623 20.2898 0
      vertex 0.331601 18.5111 33.1558
      vertex 0.482728 19.1406 33.855
    endloop
  endfacet
  facet normal -0.97237 0.233445 0
    outer loop
      vertex 0.19083 17.9247 32.7298
      vertex 0.758623 20.2898 0
      vertex 0.19083 17.9247 0
    endloop
  endfacet
  facet normal -0.97237 0.233445 -1.67497e-009
    outer loop
      vertex 0.758623 20.2898 0
      vertex 0.19083 17.9247 32.7298
      vertex 0.331601 18.5111 33.1558
    endloop
  endfacet
  facet normal -0.97237 0.233445 0
    outer loop
      vertex 0.758623 20.2898 45
      vertex 0.689057 20 36.5
      vertex 0.689057 20 45
    endloop
  endfacet
  facet normal -0.233445 -0.97237 0
    outer loop
      vertex 10.7102 0.758623 0
      vertex 13.0753 0.19083 45
      vertex 10.7102 0.758623 45
    endloop
  endfacet
  facet normal -0.233445 -0.97237 -0
    outer loop
      vertex 13.0753 0.19083 45
      vertex 10.7102 0.758623 0
      vertex 13.0753 0.19083 0
    endloop
  endfacet
  facet normal -0.522498 0.85264 0
    outer loop
      vertex 8.46315 29.3106 0
      vertex 6.38933 28.0398 45
      vertex 8.46315 29.3106 45
    endloop
  endfacet
  facet normal -0.522498 0.85264 0
    outer loop
      vertex 6.38933 28.0398 45
      vertex 8.46315 29.3106 0
      vertex 6.38933 28.0398 0
    endloop
  endfacet
  facet normal -0.923879 0.382684 0
    outer loop
      vertex 0.758623 20.2898 0
      vertex 1.6894 22.5369 45
      vertex 1.6894 22.5369 0
    endloop
  endfacet
  facet normal -0.923879 0.382684 0
    outer loop
      vertex 1.6894 22.5369 45
      vertex 0.758623 20.2898 0
      vertex 0.758623 20.2898 45
    endloop
  endfacet
  facet normal -0.760406 -0.649448 0
    outer loop
      vertex 4.53984 4.53984 0
      vertex 2.96024 6.38933 45
      vertex 2.96024 6.38933 0
    endloop
  endfacet
  facet normal -0.760406 -0.649448 0
    outer loop
      vertex 2.96024 6.38933 45
      vertex 4.53984 4.53984 0
      vertex 4.53984 4.53984 45
    endloop
  endfacet
  facet normal -0.0784589 0.996917 0
    outer loop
      vertex 15.5 31 0
      vertex 13.0753 30.8092 45
      vertex 15.5 31 45
    endloop
  endfacet
  facet normal -0.0784589 0.996917 0
    outer loop
      vertex 13.0753 30.8092 45
      vertex 15.5 31 0
      vertex 13.0753 30.8092 0
    endloop
  endfacet
  facet normal 0 0 -1
    outer loop
      vertex 84.8092 13.0753 0
      vertex 84.8092 17.9247 0
      vertex 85 15.5 0
    endloop
  endfacet
  facet normal 0 0 -1
    outer loop
      vertex 84.2414 10.7102 0
      vertex 84.8092 17.9247 0
      vertex 84.8092 13.0753 0
    endloop
  endfacet
  facet normal 0 0 -1
    outer loop
      vertex 84.2414 10.7102 0
      vertex 84.2414 20.2898 0
      vertex 84.8092 17.9247 0
    endloop
  endfacet
  facet normal 0 0 -1
    outer loop
      vertex 83.3106 8.46315 0
      vertex 84.2414 20.2898 0
      vertex 84.2414 10.7102 0
    endloop
  endfacet
  facet normal 0 0 -1
    outer loop
      vertex 83.3106 8.46315 0
      vertex 83.3106 22.5369 0
      vertex 84.2414 20.2898 0
    endloop
  endfacet
  facet normal 0 0 -1
    outer loop
      vertex 82.0398 6.38933 0
      vertex 83.3106 22.5369 0
      vertex 83.3106 8.46315 0
    endloop
  endfacet
  facet normal 0 0 -1
    outer loop
      vertex 82.0398 6.38933 0
      vertex 82.0398 24.6107 0
      vertex 83.3106 22.5369 0
    endloop
  endfacet
  facet normal 0 0 -1
    outer loop
      vertex 80.4602 4.53984 0
      vertex 82.0398 24.6107 0
      vertex 82.0398 6.38933 0
    endloop
  endfacet
  facet normal 0 0 -1
    outer loop
      vertex 80.4602 4.53984 0
      vertex 80.4602 26.4602 0
      vertex 82.0398 24.6107 0
    endloop
  endfacet
  facet normal 0 0 -1
    outer loop
      vertex 78.6107 2.96024 0
      vertex 80.4602 26.4602 0
      vertex 80.4602 4.53984 0
    endloop
  endfacet
  facet normal 0 0 -1
    outer loop
      vertex 78.6107 2.96024 0
      vertex 78.6107 28.0398 0
      vertex 80.4602 26.4602 0
    endloop
  endfacet
  facet normal 0 0 -1
    outer loop
      vertex 76.5368 1.6894 0
      vertex 78.6107 28.0398 0
      vertex 78.6107 2.96024 0
    endloop
  endfacet
  facet normal 0 0 -1
    outer loop
      vertex 76.5368 1.6894 0
      vertex 76.5368 29.3106 0
      vertex 78.6107 28.0398 0
    endloop
  endfacet
  facet normal 0 0 -1
    outer loop
      vertex 74.2898 0.758623 0
      vertex 76.5368 29.3106 0
      vertex 76.5368 1.6894 0
    endloop
  endfacet
  facet normal 0 0 -1
    outer loop
      vertex 74.2898 0.758623 0
      vertex 74.2898 30.2414 0
      vertex 76.5368 29.3106 0
    endloop
  endfacet
  facet normal 0 0 -1
    outer loop
      vertex 71.9247 0.19083 0
      vertex 74.2898 30.2414 0
      vertex 74.2898 0.758623 0
    endloop
  endfacet
  facet normal 0 0 -1
    outer loop
      vertex 71.9247 0.19083 0
      vertex 71.9247 30.8092 0
      vertex 74.2898 30.2414 0
    endloop
  endfacet
  facet normal 0 0 -1
    outer loop
      vertex 69.5 0 0
      vertex 71.9247 30.8092 0
      vertex 71.9247 0.19083 0
    endloop
  endfacet
  facet normal 0 0 -1
    outer loop
      vertex 69.5 0 0
      vertex 69.5 31 0
      vertex 71.9247 30.8092 0
    endloop
  endfacet
  facet normal 0 0 -1
    outer loop
      vertex 15.5 7.50556e-008 0
      vertex 69.5 0 0
      vertex 15.5 0 0
    endloop
  endfacet
  facet normal 0 0 -1
    outer loop
      vertex 69.5 0 0
      vertex 15.5 7.50556e-008 0
      vertex 69.5 31 0
    endloop
  endfacet
  facet normal 0 0 -1
    outer loop
      vertex 15.5 7.50556e-008 0
      vertex 15.5 31 0
      vertex 69.5 31 0
    endloop
  endfacet
  facet normal 0 0 -1
    outer loop
      vertex 13.0753 0.19083 0
      vertex 15.5 7.50556e-008 0
      vertex 15.5 0 0
    endloop
  endfacet
  facet normal 0 0 -1
    outer loop
      vertex 15.5 7.50556e-008 0
      vertex 13.0753 0.19083 0
      vertex 15.5 31 0
    endloop
  endfacet
  facet normal 0 0 -1
    outer loop
      vertex 13.0753 0.19083 0
      vertex 13.0753 30.8092 0
      vertex 15.5 31 0
    endloop
  endfacet
  facet normal 0 0 -1
    outer loop
      vertex 10.7102 0.758623 0
      vertex 13.0753 30.8092 0
      vertex 13.0753 0.19083 0
    endloop
  endfacet
  facet normal 0 0 -1
    outer loop
      vertex 10.7102 0.758623 0
      vertex 10.7102 30.2414 0
      vertex 13.0753 30.8092 0
    endloop
  endfacet
  facet normal 0 0 -1
    outer loop
      vertex 8.46315 1.6894 0
      vertex 10.7102 30.2414 0
      vertex 10.7102 0.758623 0
    endloop
  endfacet
  facet normal 0 0 -1
    outer loop
      vertex 8.46315 1.6894 0
      vertex 8.46315 29.3106 0
      vertex 10.7102 30.2414 0
    endloop
  endfacet
  facet normal 0 0 -1
    outer loop
      vertex 6.38933 2.96024 0
      vertex 8.46315 29.3106 0
      vertex 8.46315 1.6894 0
    endloop
  endfacet
  facet normal 0 0 -1
    outer loop
      vertex 6.38933 2.96024 0
      vertex 6.38933 28.0398 0
      vertex 8.46315 29.3106 0
    endloop
  endfacet
  facet normal 0 0 -1
    outer loop
      vertex 4.53984 4.53984 0
      vertex 6.38933 28.0398 0
      vertex 6.38933 2.96024 0
    endloop
  endfacet
  facet normal 0 0 -1
    outer loop
      vertex 4.53984 4.53984 0
      vertex 4.53984 26.4602 0
      vertex 6.38933 28.0398 0
    endloop
  endfacet
  facet normal 0 0 -1
    outer loop
      vertex 2.96024 6.38933 0
      vertex 4.53984 26.4602 0
      vertex 4.53984 4.53984 0
    endloop
  endfacet
  facet normal 0 0 -1
    outer loop
      vertex 2.96024 6.38933 0
      vertex 2.96024 24.6107 0
      vertex 4.53984 26.4602 0
    endloop
  endfacet
  facet normal 0 0 -1
    outer loop
      vertex 1.6894 8.46315 0
      vertex 2.96024 24.6107 0
      vertex 2.96024 6.38933 0
    endloop
  endfacet
  facet normal 0 0 -1
    outer loop
      vertex 1.6894 8.46315 0
      vertex 1.6894 22.5369 0
      vertex 2.96024 24.6107 0
    endloop
  endfacet
  facet normal 0 0 -1
    outer loop
      vertex 0.758623 10.7102 0
      vertex 1.6894 22.5369 0
      vertex 1.6894 8.46315 0
    endloop
  endfacet
  facet normal 0 0 -1
    outer loop
      vertex 0.758623 10.7102 0
      vertex 0.758623 20.2898 0
      vertex 1.6894 22.5369 0
    endloop
  endfacet
  facet normal 0 0 -1
    outer loop
      vertex 0.19083 13.0753 0
      vertex 0.758623 20.2898 0
      vertex 0.758623 10.7102 0
    endloop
  endfacet
  facet normal 0 0 -1
    outer loop
      vertex 0.19083 13.0753 0
      vertex 0.19083 17.9247 0
      vertex 0.758623 20.2898 0
    endloop
  endfacet
  facet normal 0 -0 -1
    outer loop
      vertex 0.19083 17.9247 0
      vertex 0.19083 13.0753 0
      vertex 0 15.5 0
    endloop
  endfacet
  facet normal -0.996917 -0.0784589 3.09344e-017
    outer loop
      vertex 0 15.5 0
      vertex 0.0370194 15.0296 32.0247
      vertex 9.93727e-016 15.5 32.0247
    endloop
  endfacet
  facet normal -0.996917 -0.0784589 -5.56204e-011
    outer loop
      vertex 0.19083 13.0753 0
      vertex 0.0370194 15.0296 32.0247
      vertex 0 15.5 0
    endloop
  endfacet
  facet normal -0.996917 -0.0784589 2.44943e-010
    outer loop
      vertex 0.0370194 15.0296 32.0247
      vertex 0.19083 13.0753 0
      vertex 0.10944 14.1094 32.2202
    endloop
  endfacet
  facet normal -0.996917 -0.0784589 -5.93465e-011
    outer loop
      vertex 0.10944 14.1094 32.2202
      vertex 0.19083 13.0753 0
      vertex 0.177078 13.25 32.6029
    endloop
  endfacet
  facet normal -0.996917 -0.0784589 0
    outer loop
      vertex 0.177078 13.25 32.6029
      vertex 0.19083 13.0753 0
      vertex 0.19083 13.0753 32.7298
    endloop
  endfacet
  facet normal -0 -1 0
    outer loop
      vertex 9.93727e-016 15.5 32.0247
      vertex 0 15.5 36.5
      vertex 0 15.5 0
    endloop
  endfacet
  facet normal -0.85264 0.522498 0
    outer loop
      vertex 1.6894 22.5369 0
      vertex 2.96024 24.6107 45
      vertex 2.96024 24.6107 0
    endloop
  endfacet
  facet normal -0.85264 0.522498 0
    outer loop
      vertex 2.96024 24.6107 45
      vertex 1.6894 22.5369 0
      vertex 1.6894 22.5369 45
    endloop
  endfacet
  facet normal -0.649448 0.760406 0
    outer loop
      vertex 6.38933 28.0398 0
      vertex 4.53984 26.4602 45
      vertex 6.38933 28.0398 45
    endloop
  endfacet
  facet normal -0.649448 0.760406 0
    outer loop
      vertex 4.53984 26.4602 45
      vertex 6.38933 28.0398 0
      vertex 4.53984 26.4602 0
    endloop
  endfacet
  facet normal -0.233446 0.97237 0
    outer loop
      vertex 13.0753 30.8092 0
      vertex 10.7102 30.2414 45
      vertex 13.0753 30.8092 45
    endloop
  endfacet
  facet normal -0.233446 0.97237 0
    outer loop
      vertex 10.7102 30.2414 45
      vertex 13.0753 30.8092 0
      vertex 10.7102 30.2414 0
    endloop
  endfacet
  facet normal -0.760406 0.649448 0
    outer loop
      vertex 2.96024 24.6107 0
      vertex 4.53984 26.4602 45
      vertex 4.53984 26.4602 0
    endloop
  endfacet
  facet normal -0.760406 0.649448 0
    outer loop
      vertex 4.53984 26.4602 45
      vertex 2.96024 24.6107 0
      vertex 2.96024 24.6107 45
    endloop
  endfacet
  facet normal -0.522498 -0.85264 0
    outer loop
      vertex 6.38933 2.96024 0
      vertex 8.46315 1.6894 45
      vertex 6.38933 2.96024 45
    endloop
  endfacet
  facet normal -0.522498 -0.85264 -0
    outer loop
      vertex 8.46315 1.6894 45
      vertex 6.38933 2.96024 0
      vertex 8.46315 1.6894 0
    endloop
  endfacet
  facet normal -0.382684 -0.923879 0
    outer loop
      vertex 8.46315 1.6894 0
      vertex 10.7102 0.758623 45
      vertex 8.46315 1.6894 45
    endloop
  endfacet
  facet normal -0.382684 -0.923879 -0
    outer loop
      vertex 10.7102 0.758623 45
      vertex 8.46315 1.6894 0
      vertex 10.7102 0.758623 0
    endloop
  endfacet
  facet normal -0.97237 -0.233445 0
    outer loop
      vertex 0.758623 10.7102 0
      vertex 0.19083 13.0753 32.7298
      vertex 0.19083 13.0753 0
    endloop
  endfacet
  facet normal -0.97237 -0.233445 6.40865e-010
    outer loop
      vertex 0.19083 13.0753 32.7298
      vertex 0.758623 10.7102 0
      vertex 0.331601 12.4889 33.1558
    endloop
  endfacet
  facet normal -0.97237 -0.233445 -9.04117e-010
    outer loop
      vertex 0.331601 12.4889 33.1558
      vertex 0.758623 10.7102 0
      vertex 0.482728 11.8594 33.855
    endloop
  endfacet
  facet normal -0.97237 -0.233445 -5.91295e-010
    outer loop
      vertex 0.482728 11.8594 33.855
      vertex 0.758623 10.7102 0
      vertex 0.595656 11.389 34.6697
    endloop
  endfacet
  facet normal -0.97237 -0.233445 4.25542e-010
    outer loop
      vertex 0.595656 11.389 34.6697
      vertex 0.758623 10.7102 0
      vertex 0.665449 11.0983 35.5644
    endloop
  endfacet
  facet normal -0.97237 -0.233445 1.56731e-009
    outer loop
      vertex 0.665449 11.0983 35.5644
      vertex 0.758623 10.7102 0
      vertex 0.689057 11 36.5
    endloop
  endfacet
  facet normal -0.97237 -0.233445 -0
    outer loop
      vertex 0.758623 10.7102 45
      vertex 0.689057 11 36.5
      vertex 0.758623 10.7102 0
    endloop
  endfacet
  facet normal -0.97237 -0.233445 0
    outer loop
      vertex 0.689057 11 36.5
      vertex 0.758623 10.7102 45
      vertex 0.689057 11 45
    endloop
  endfacet
  facet normal -0.996917 0.0784589 0
    outer loop
      vertex 0.19083 17.9247 0
      vertex 0.177078 17.75 32.6029
      vertex 0.19083 17.9247 32.7298
    endloop
  endfacet
  facet normal -0.996917 0.0784588 -3.10573e-010
    outer loop
      vertex 0.19083 17.9247 0
      vertex 0.10944 16.8906 32.2202
      vertex 0.177078 17.75 32.6029
    endloop
  endfacet
  facet normal -0.996917 0.078459 4.75391e-009
    outer loop
      vertex 0.19083 17.9247 0
      vertex 0.0370195 15.9704 32.0247
      vertex 0.10944 16.8906 32.2202
    endloop
  endfacet
  facet normal -0.996917 0.0784589 -4.50048e-011
    outer loop
      vertex 0 15.5 0
      vertex 0.0370195 15.9704 32.0247
      vertex 0.19083 17.9247 0
    endloop
  endfacet
  facet normal -0.996917 0.0784589 3.09972e-017
    outer loop
      vertex 0.0370195 15.9704 32.0247
      vertex 0 15.5 0
      vertex 9.93727e-016 15.5 32.0247
    endloop
  endfacet
  facet normal 0 1 0
    outer loop
      vertex 9.93727e-016 15.5 32.0247
      vertex 0 15.5 0
      vertex 0 15.5 36.5
    endloop
  endfacet
  facet normal -0.0784589 -0.996917 0
    outer loop
      vertex 13.0753 0.19083 0
      vertex 15.5 0 45
      vertex 13.0753 0.19083 45
    endloop
  endfacet
  facet normal -0.0784589 -0.996917 -0
    outer loop
      vertex 15.5 0 45
      vertex 13.0753 0.19083 0
      vertex 15.5 0 0
    endloop
  endfacet
  facet normal 0.0784589 -0.996917 0
    outer loop
      vertex 15.5 0 0
      vertex 15.5 7.50556e-008 45
      vertex 15.5 0 45
    endloop
  endfacet
  facet normal 0.0784589 -0.996917 0
    outer loop
      vertex 15.5 7.50556e-008 45
      vertex 15.5 0 0
      vertex 15.5 7.50556e-008 0
    endloop
  endfacet
  facet normal -0.923879 -0.382684 0
    outer loop
      vertex 1.6894 8.46315 0
      vertex 0.758623 10.7102 45
      vertex 0.758623 10.7102 0
    endloop
  endfacet
  facet normal -0.923879 -0.382684 0
    outer loop
      vertex 0.758623 10.7102 45
      vertex 1.6894 8.46315 0
      vertex 1.6894 8.46315 45
    endloop
  endfacet
  facet normal -0.85264 -0.522498 0
    outer loop
      vertex 2.96024 6.38933 0
      vertex 1.6894 8.46315 45
      vertex 1.6894 8.46315 0
    endloop
  endfacet
  facet normal -0.85264 -0.522498 0
    outer loop
      vertex 1.6894 8.46315 45
      vertex 2.96024 6.38933 0
      vertex 2.96024 6.38933 45
    endloop
  endfacet
  facet normal -0.649448 -0.760406 0
    outer loop
      vertex 4.53984 4.53984 0
      vertex 6.38933 2.96024 45
      vertex 4.53984 4.53984 45
    endloop
  endfacet
  facet normal -0.649448 -0.760406 -0
    outer loop
      vertex 6.38933 2.96024 45
      vertex 4.53984 4.53984 0
      vertex 6.38933 2.96024 0
    endloop
  endfacet
  facet normal 0 0 1
    outer loop
      vertex 82 15.5 45
      vertex 85 15.5 45
      vertex 84.8092 17.9247 45
    endloop
  endfacet
  facet normal 0 0 1
    outer loop
      vertex 81.8461 17.4554 45
      vertex 84.8092 17.9247 45
      vertex 84.2414 20.2898 45
    endloop
  endfacet
  facet normal 0 0 1
    outer loop
      vertex 85 15.5 45
      vertex 82 15.5 45
      vertex 84.8092 13.0753 45
    endloop
  endfacet
  facet normal 0 0 1
    outer loop
      vertex 81.3882 19.3627 45
      vertex 84.2414 20.2898 45
      vertex 83.3106 22.5369 45
    endloop
  endfacet
  facet normal -0 0 1
    outer loop
      vertex 81.8461 13.5446 45
      vertex 84.8092 13.0753 45
      vertex 82 15.5 45
    endloop
  endfacet
  facet normal 0 0 1
    outer loop
      vertex 80.6376 21.1749 45
      vertex 83.3106 22.5369 45
      vertex 82.0398 24.6107 45
    endloop
  endfacet
  facet normal 0 0 1
    outer loop
      vertex 84.8092 13.0753 45
      vertex 81.8461 13.5446 45
      vertex 84.2414 10.7102 45
    endloop
  endfacet
  facet normal -0 0 1
    outer loop
      vertex 81.3882 11.6373 45
      vertex 84.2414 10.7102 45
      vertex 81.8461 13.5446 45
    endloop
  endfacet
  facet normal 0 0 1
    outer loop
      vertex 84.8092 17.9247 45
      vertex 81.8461 17.4554 45
      vertex 82 15.5 45
    endloop
  endfacet
  facet normal 0 0 1
    outer loop
      vertex 84.2414 20.2898 45
      vertex 81.3882 19.3627 45
      vertex 81.8461 17.4554 45
    endloop
  endfacet
  facet normal 0 0 1
    outer loop
      vertex 83.3106 22.5369 45
      vertex 80.6376 21.1749 45
      vertex 81.3882 19.3627 45
    endloop
  endfacet
  facet normal 0 0 1
    outer loop
      vertex 79.6127 22.8473 45
      vertex 82.0398 24.6107 45
      vertex 80.4602 26.4602 45
    endloop
  endfacet
  facet normal 0 0 1
    outer loop
      vertex 82.0398 24.6107 45
      vertex 79.6127 22.8473 45
      vertex 80.6376 21.1749 45
    endloop
  endfacet
  facet normal 0 0 1
    outer loop
      vertex 78.3388 24.3388 45
      vertex 80.4602 26.4602 45
      vertex 78.6107 28.0398 45
    endloop
  endfacet
  facet normal 0 0 1
    outer loop
      vertex 80.4602 26.4602 45
      vertex 78.3388 24.3388 45
      vertex 79.6127 22.8473 45
    endloop
  endfacet
  facet normal 0 0 1
    outer loop
      vertex 78.6107 28.0398 45
      vertex 76.8473 25.6127 45
      vertex 78.3388 24.3388 45
    endloop
  endfacet
  facet normal 0 0 1
    outer loop
      vertex 76.5368 29.3106 45
      vertex 76.8473 25.6127 45
      vertex 78.6107 28.0398 45
    endloop
  endfacet
  facet normal 0 0 1
    outer loop
      vertex 76.5368 29.3106 45
      vertex 75.1749 26.6376 45
      vertex 76.8473 25.6127 45
    endloop
  endfacet
  facet normal 0 0 1
    outer loop
      vertex 74.2898 30.2414 45
      vertex 75.1749 26.6376 45
      vertex 76.5368 29.3106 45
    endloop
  endfacet
  facet normal 0 0 1
    outer loop
      vertex 74.2898 30.2414 45
      vertex 73.3627 27.3882 45
      vertex 75.1749 26.6376 45
    endloop
  endfacet
  facet normal 0 0 1
    outer loop
      vertex 71.9247 30.8092 45
      vertex 73.3627 27.3882 45
      vertex 74.2898 30.2414 45
    endloop
  endfacet
  facet normal 0 0 1
    outer loop
      vertex 71.9247 30.8092 45
      vertex 71.4554 27.8461 45
      vertex 73.3627 27.3882 45
    endloop
  endfacet
  facet normal 0 0 1
    outer loop
      vertex 69.5 31 45
      vertex 71.4554 27.8461 45
      vertex 71.9247 30.8092 45
    endloop
  endfacet
  facet normal 0 0 1
    outer loop
      vertex 69.5 31 45
      vertex 69.5 28 45
      vertex 71.4554 27.8461 45
    endloop
  endfacet
  facet normal -0 0 1
    outer loop
      vertex 15.5 31 45
      vertex 69.5 28 45
      vertex 69.5 31 45
    endloop
  endfacet
  facet normal 0 0 1
    outer loop
      vertex 15.5 31 45
      vertex 15.5 28 45
      vertex 69.5 28 45
    endloop
  endfacet
  facet normal 0 0 1
    outer loop
      vertex 15.5 31 45
      vertex 13.5446 27.8461 45
      vertex 15.5 28 45
    endloop
  endfacet
  facet normal -0 0 1
    outer loop
      vertex 13.0753 30.8092 45
      vertex 13.5446 27.8461 45
      vertex 15.5 31 45
    endloop
  endfacet
  facet normal 0 0 1
    outer loop
      vertex 13.0753 30.8092 45
      vertex 11.6373 27.3882 45
      vertex 13.5446 27.8461 45
    endloop
  endfacet
  facet normal -0 0 1
    outer loop
      vertex 10.7102 30.2414 45
      vertex 11.6373 27.3882 45
      vertex 13.0753 30.8092 45
    endloop
  endfacet
  facet normal 0 0 1
    outer loop
      vertex 10.7102 30.2414 45
      vertex 9.82512 26.6376 45
      vertex 11.6373 27.3882 45
    endloop
  endfacet
  facet normal -0 0 1
    outer loop
      vertex 8.46315 29.3106 45
      vertex 9.82512 26.6376 45
      vertex 10.7102 30.2414 45
    endloop
  endfacet
  facet normal 0 0 1
    outer loop
      vertex 8.46315 29.3106 45
      vertex 8.15269 25.6127 45
      vertex 9.82512 26.6376 45
    endloop
  endfacet
  facet normal -0 0 1
    outer loop
      vertex 6.38933 28.0398 45
      vertex 8.15269 25.6127 45
      vertex 8.46315 29.3106 45
    endloop
  endfacet
  facet normal 0 0 1
    outer loop
      vertex 8.15269 25.6127 45
      vertex 6.38933 28.0398 45
      vertex 6.66117 24.3388 45
    endloop
  endfacet
  facet normal -0 0 1
    outer loop
      vertex 4.53984 26.4602 45
      vertex 6.66117 24.3388 45
      vertex 6.38933 28.0398 45
    endloop
  endfacet
  facet normal 0 0 1
    outer loop
      vertex 6.66117 24.3388 45
      vertex 4.53984 26.4602 45
      vertex 5.38729 22.8473 45
    endloop
  endfacet
  facet normal -0 0 1
    outer loop
      vertex 2.96024 24.6107 45
      vertex 5.38729 22.8473 45
      vertex 4.53984 26.4602 45
    endloop
  endfacet
  facet normal 0 0 1
    outer loop
      vertex 5.38729 22.8473 45
      vertex 2.96024 24.6107 45
      vertex 4.36242 21.1749 45
    endloop
  endfacet
  facet normal -0 0 1
    outer loop
      vertex 1.6894 22.5369 45
      vertex 4.36242 21.1749 45
      vertex 2.96024 24.6107 45
    endloop
  endfacet
  facet normal 0 0 1
    outer loop
      vertex 4.36242 21.1749 45
      vertex 1.6894 22.5369 45
      vertex 3.87577 20 45
    endloop
  endfacet
  facet normal -0 0 1
    outer loop
      vertex 0.758623 20.2898 45
      vertex 3.87577 20 45
      vertex 1.6894 22.5369 45
    endloop
  endfacet
  facet normal 0 0 1
    outer loop
      vertex 3.87577 20 45
      vertex 0.758623 20.2898 45
      vertex 0.689057 20 45
    endloop
  endfacet
  facet normal 0 0 1
    outer loop
      vertex 84.2414 10.7102 45
      vertex 81.3882 11.6373 45
      vertex 83.3106 8.46315 45
    endloop
  endfacet
  facet normal -0 0 1
    outer loop
      vertex 80.6376 9.82512 45
      vertex 83.3106 8.46315 45
      vertex 81.3882 11.6373 45
    endloop
  endfacet
  facet normal 0 0 1
    outer loop
      vertex 83.3106 8.46315 45
      vertex 80.6376 9.82512 45
      vertex 82.0398 6.38933 45
    endloop
  endfacet
  facet normal -0 0 1
    outer loop
      vertex 79.6127 8.15269 45
      vertex 82.0398 6.38933 45
      vertex 80.6376 9.82512 45
    endloop
  endfacet
  facet normal 0 0 1
    outer loop
      vertex 82.0398 6.38933 45
      vertex 79.6127 8.15269 45
      vertex 80.4602 4.53984 45
    endloop
  endfacet
  facet normal -0 0 1
    outer loop
      vertex 78.3388 6.66117 45
      vertex 80.4602 4.53984 45
      vertex 79.6127 8.15269 45
    endloop
  endfacet
  facet normal 0 0 1
    outer loop
      vertex 80.4602 4.53984 45
      vertex 78.3388 6.66117 45
      vertex 78.6107 2.96024 45
    endloop
  endfacet
  facet normal -0 0 1
    outer loop
      vertex 76.8473 5.38729 45
      vertex 78.6107 2.96024 45
      vertex 78.3388 6.66117 45
    endloop
  endfacet
  facet normal 0 0 1
    outer loop
      vertex 76.8473 5.38729 45
      vertex 76.5368 1.6894 45
      vertex 78.6107 2.96024 45
    endloop
  endfacet
  facet normal -0 0 1
    outer loop
      vertex 75.1749 4.36242 45
      vertex 76.5368 1.6894 45
      vertex 76.8473 5.38729 45
    endloop
  endfacet
  facet normal 0 0 1
    outer loop
      vertex 75.1749 4.36242 45
      vertex 74.2898 0.758623 45
      vertex 76.5368 1.6894 45
    endloop
  endfacet
  facet normal -0 0 1
    outer loop
      vertex 73.3627 3.61179 45
      vertex 74.2898 0.758623 45
      vertex 75.1749 4.36242 45
    endloop
  endfacet
  facet normal 0 0 1
    outer loop
      vertex 73.3627 3.61179 45
      vertex 71.9247 0.19083 45
      vertex 74.2898 0.758623 45
    endloop
  endfacet
  facet normal -0 0 1
    outer loop
      vertex 71.4554 3.1539 45
      vertex 71.9247 0.19083 45
      vertex 73.3627 3.61179 45
    endloop
  endfacet
  facet normal -0 0 1
    outer loop
      vertex 69.5 3 45
      vertex 71.9247 0.19083 45
      vertex 71.4554 3.1539 45
    endloop
  endfacet
  facet normal 0 0 1
    outer loop
      vertex 69.5 3 45
      vertex 69.5 0 45
      vertex 71.9247 0.19083 45
    endloop
  endfacet
  facet normal -0 0 1
    outer loop
      vertex 61.5 3 45
      vertex 69.5 0 45
      vertex 69.5 3 45
    endloop
  endfacet
  facet normal 0 0 1
    outer loop
      vertex 69.5 0 45
      vertex 61.5 3 45
      vertex 61.5 0 45
    endloop
  endfacet
  facet normal 0 0 1
    outer loop
      vertex 15.5 3 45
      vertex 15.5 0 45
      vertex 15.5 7.50556e-008 45
    endloop
  endfacet
  facet normal 0 0 1
    outer loop
      vertex 13.5446 3.1539 45
      vertex 15.5 0 45
      vertex 15.5 3 45
    endloop
  endfacet
  facet normal 0 0 1
    outer loop
      vertex 13.5446 3.1539 45
      vertex 13.0753 0.19083 45
      vertex 15.5 0 45
    endloop
  endfacet
  facet normal 0 0 1
    outer loop
      vertex 11.6373 3.61179 45
      vertex 13.0753 0.19083 45
      vertex 13.5446 3.1539 45
    endloop
  endfacet
  facet normal 0 0 1
    outer loop
      vertex 11.6373 3.61179 45
      vertex 10.7102 0.758623 45
      vertex 13.0753 0.19083 45
    endloop
  endfacet
  facet normal 0 0 1
    outer loop
      vertex 9.82512 4.36242 45
      vertex 10.7102 0.758623 45
      vertex 11.6373 3.61179 45
    endloop
  endfacet
  facet normal 0 0 1
    outer loop
      vertex 9.82512 4.36242 45
      vertex 8.46315 1.6894 45
      vertex 10.7102 0.758623 45
    endloop
  endfacet
  facet normal 0 0 1
    outer loop
      vertex 8.15269 5.38729 45
      vertex 8.46315 1.6894 45
      vertex 9.82512 4.36242 45
    endloop
  endfacet
  facet normal 0 0 1
    outer loop
      vertex 6.38933 2.96024 45
      vertex 8.15269 5.38729 45
      vertex 6.66117 6.66117 45
    endloop
  endfacet
  facet normal 0 0 1
    outer loop
      vertex 8.15269 5.38729 45
      vertex 6.38933 2.96024 45
      vertex 8.46315 1.6894 45
    endloop
  endfacet
  facet normal 0 0 1
    outer loop
      vertex 4.53984 4.53984 45
      vertex 6.66117 6.66117 45
      vertex 5.38729 8.15269 45
    endloop
  endfacet
  facet normal 0 0 1
    outer loop
      vertex 6.66117 6.66117 45
      vertex 4.53984 4.53984 45
      vertex 6.38933 2.96024 45
    endloop
  endfacet
  facet normal 0 0 1
    outer loop
      vertex 2.96024 6.38933 45
      vertex 5.38729 8.15269 45
      vertex 4.36242 9.82512 45
    endloop
  endfacet
  facet normal 0 0 1
    outer loop
      vertex 1.6894 8.46315 45
      vertex 4.36242 9.82512 45
      vertex 3.87577 11 45
    endloop
  endfacet
  facet normal 0 0 1
    outer loop
      vertex 5.38729 8.15269 45
      vertex 2.96024 6.38933 45
      vertex 4.53984 4.53984 45
    endloop
  endfacet
  facet normal 0 0 1
    outer loop
      vertex 4.36242 9.82512 45
      vertex 1.6894 8.46315 45
      vertex 2.96024 6.38933 45
    endloop
  endfacet
  facet normal 0 0 1
    outer loop
      vertex 3.87577 11 45
      vertex 0.758623 10.7102 45
      vertex 1.6894 8.46315 45
    endloop
  endfacet
  facet normal 0 -0 1
    outer loop
      vertex 0.758623 10.7102 45
      vertex 3.87577 11 45
      vertex 0.689057 11 45
    endloop
  endfacet
  facet normal -0 0 1
    outer loop
      vertex 15.5 3 45
      vertex 23.5 0 45
      vertex 23.5 3 45
    endloop
  endfacet
  facet normal -0 0 1
    outer loop
      vertex 15.5 7.50556e-008 45
      vertex 23.5 0 45
      vertex 15.5 3 45
    endloop
  endfacet
  facet normal 0 0 1
    outer loop
      vertex 23.5 0 45
      vertex 15.5 7.50556e-008 45
      vertex 15.5 0 45
    endloop
  endfacet
  facet normal -0.382683 0.92388 0
    outer loop
      vertex 10.7102 30.2414 0
      vertex 8.46315 29.3106 45
      vertex 10.7102 30.2414 45
    endloop
  endfacet
  facet normal -0.382683 0.92388 0
    outer loop
      vertex 8.46315 29.3106 45
      vertex 10.7102 30.2414 0
      vertex 8.46315 29.3106 0
    endloop
  endfacet
  facet normal -1 0 0
    outer loop
      vertex 15.5 0 0
      vertex 15.5 7.50556e-008 45
      vertex 15.5 7.50556e-008 0
    endloop
  endfacet
  facet normal -1 -0 0
    outer loop
      vertex 15.5 7.50556e-008 45
      vertex 15.5 0 0
      vertex 15.5 0 45
    endloop
  endfacet
  facet normal 0 -1 0
    outer loop
      vertex 15.5 0 45
      vertex 23.5 0 19
      vertex 23.5 0 45
    endloop
  endfacet
  facet normal 0 -1 -0
    outer loop
      vertex 23.5 0 19
      vertex 15.5 0 0
      vertex 61.5 0 19
    endloop
  endfacet
  facet normal 0 -1 0
    outer loop
      vertex 15.5 0 0
      vertex 23.5 0 19
      vertex 15.5 0 45
    endloop
  endfacet
  facet normal 0 -1 0
    outer loop
      vertex 61.5 0 19
      vertex 69.5 0 45
      vertex 61.5 0 45
    endloop
  endfacet
  facet normal 0 -1 0
    outer loop
      vertex 61.5 0 19
      vertex 69.5 0 0
      vertex 69.5 0 45
    endloop
  endfacet
  facet normal 0 -1 0
    outer loop
      vertex 69.5 0 0
      vertex 61.5 0 19
      vertex 15.5 0 0
    endloop
  endfacet
  facet normal 0 1 -0
    outer loop
      vertex 69.5 31 0
      vertex 15.5 31 45
      vertex 69.5 31 45
    endloop
  endfacet
  facet normal 0 1 0
    outer loop
      vertex 15.5 31 45
      vertex 69.5 31 0
      vertex 15.5 31 0
    endloop
  endfacet
  facet normal 0.522498 0.852641 -0
    outer loop
      vertex 78.6107 28.0398 0
      vertex 76.5368 29.3106 45
      vertex 78.6107 28.0398 45
    endloop
  endfacet
  facet normal 0.522498 0.852641 0
    outer loop
      vertex 76.5368 29.3106 45
      vertex 78.6107 28.0398 0
      vertex 76.5368 29.3106 0
    endloop
  endfacet
  facet normal 0.852641 0.522498 0
    outer loop
      vertex 83.3106 22.5369 45
      vertex 82.0398 24.6107 0
      vertex 82.0398 24.6107 45
    endloop
  endfacet
  facet normal 0.852641 0.522498 0
    outer loop
      vertex 82.0398 24.6107 0
      vertex 83.3106 22.5369 45
      vertex 83.3106 22.5369 0
    endloop
  endfacet
  facet normal 0.97237 0.233443 0
    outer loop
      vertex 84.8092 17.9247 45
      vertex 84.2414 20.2898 0
      vertex 84.2414 20.2898 45
    endloop
  endfacet
  facet normal 0.97237 0.233443 0
    outer loop
      vertex 84.2414 20.2898 0
      vertex 84.8092 17.9247 45
      vertex 84.8092 17.9247 0
    endloop
  endfacet
  facet normal 0.760405 0.649449 0
    outer loop
      vertex 82.0398 24.6107 45
      vertex 80.4602 26.4602 0
      vertex 80.4602 26.4602 45
    endloop
  endfacet
  facet normal 0.760405 0.649449 0
    outer loop
      vertex 80.4602 26.4602 0
      vertex 82.0398 24.6107 45
      vertex 82.0398 24.6107 0
    endloop
  endfacet
  facet normal 0.649449 0.760406 -0
    outer loop
      vertex 80.4602 26.4602 0
      vertex 78.6107 28.0398 45
      vertex 80.4602 26.4602 45
    endloop
  endfacet
  facet normal 0.649449 0.760406 0
    outer loop
      vertex 78.6107 28.0398 45
      vertex 80.4602 26.4602 0
      vertex 78.6107 28.0398 0
    endloop
  endfacet
  facet normal 0.382684 0.923879 -0
    outer loop
      vertex 76.5368 29.3106 0
      vertex 74.2898 30.2414 45
      vertex 76.5368 29.3106 45
    endloop
  endfacet
  facet normal 0.382684 0.923879 0
    outer loop
      vertex 74.2898 30.2414 45
      vertex 76.5368 29.3106 0
      vertex 74.2898 30.2414 0
    endloop
  endfacet
  facet normal 0.996917 0.0784605 0
    outer loop
      vertex 85 15.5 45
      vertex 84.8092 17.9247 0
      vertex 84.8092 17.9247 45
    endloop
  endfacet
  facet normal 0.996917 0.0784605 0
    outer loop
      vertex 84.8092 17.9247 0
      vertex 85 15.5 45
      vertex 85 15.5 0
    endloop
  endfacet
  facet normal 0.233445 -0.97237 0
    outer loop
      vertex 71.9247 0.19083 0
      vertex 74.2898 0.758623 45
      vertex 71.9247 0.19083 45
    endloop
  endfacet
  facet normal 0.233445 -0.97237 0
    outer loop
      vertex 74.2898 0.758623 45
      vertex 71.9247 0.19083 0
      vertex 74.2898 0.758623 0
    endloop
  endfacet
  facet normal 0.522498 -0.852641 0
    outer loop
      vertex 76.5368 1.6894 0
      vertex 78.6107 2.96024 45
      vertex 76.5368 1.6894 45
    endloop
  endfacet
  facet normal 0.522498 -0.852641 0
    outer loop
      vertex 78.6107 2.96024 45
      vertex 76.5368 1.6894 0
      vertex 78.6107 2.96024 0
    endloop
  endfacet
  facet normal 0.649449 -0.760405 0
    outer loop
      vertex 78.6107 2.96024 0
      vertex 80.4602 4.53984 45
      vertex 78.6107 2.96024 45
    endloop
  endfacet
  facet normal 0.649449 -0.760405 0
    outer loop
      vertex 80.4602 4.53984 45
      vertex 78.6107 2.96024 0
      vertex 80.4602 4.53984 0
    endloop
  endfacet
  facet normal 0.852641 -0.522498 0
    outer loop
      vertex 82.0398 6.38933 45
      vertex 83.3106 8.46315 0
      vertex 83.3106 8.46315 45
    endloop
  endfacet
  facet normal 0.852641 -0.522498 0
    outer loop
      vertex 83.3106 8.46315 0
      vertex 82.0398 6.38933 45
      vertex 82.0398 6.38933 0
    endloop
  endfacet
  facet normal 0.923879 0.382685 0
    outer loop
      vertex 84.2414 20.2898 45
      vertex 83.3106 22.5369 0
      vertex 83.3106 22.5369 45
    endloop
  endfacet
  facet normal 0.923879 0.382685 0
    outer loop
      vertex 83.3106 22.5369 0
      vertex 84.2414 20.2898 45
      vertex 84.2414 20.2898 0
    endloop
  endfacet
  facet normal 0.233446 0.97237 -0
    outer loop
      vertex 74.2898 30.2414 0
      vertex 71.9247 30.8092 45
      vertex 74.2898 30.2414 45
    endloop
  endfacet
  facet normal 0.233446 0.97237 0
    outer loop
      vertex 71.9247 30.8092 45
      vertex 74.2898 30.2414 0
      vertex 71.9247 30.8092 0
    endloop
  endfacet
  facet normal 0.0784588 0.996917 -0
    outer loop
      vertex 71.9247 30.8092 0
      vertex 69.5 31 45
      vertex 71.9247 30.8092 45
    endloop
  endfacet
  facet normal 0.0784588 0.996917 0
    outer loop
      vertex 69.5 31 45
      vertex 71.9247 30.8092 0
      vertex 69.5 31 0
    endloop
  endfacet
  facet normal 0.97237 -0.233443 0
    outer loop
      vertex 84.2414 10.7102 45
      vertex 84.8092 13.0753 0
      vertex 84.8092 13.0753 45
    endloop
  endfacet
  facet normal 0.97237 -0.233443 0
    outer loop
      vertex 84.8092 13.0753 0
      vertex 84.2414 10.7102 45
      vertex 84.2414 10.7102 0
    endloop
  endfacet
  facet normal 0.382684 -0.923879 0
    outer loop
      vertex 74.2898 0.758623 0
      vertex 76.5368 1.6894 45
      vertex 74.2898 0.758623 45
    endloop
  endfacet
  facet normal 0.382684 -0.923879 0
    outer loop
      vertex 76.5368 1.6894 45
      vertex 74.2898 0.758623 0
      vertex 76.5368 1.6894 0
    endloop
  endfacet
  facet normal 0.760405 -0.649449 0
    outer loop
      vertex 80.4602 4.53984 45
      vertex 82.0398 6.38933 0
      vertex 82.0398 6.38933 45
    endloop
  endfacet
  facet normal 0.760405 -0.649449 0
    outer loop
      vertex 82.0398 6.38933 0
      vertex 80.4602 4.53984 45
      vertex 80.4602 4.53984 0
    endloop
  endfacet
  facet normal 0.923879 -0.382685 0
    outer loop
      vertex 83.3106 8.46315 45
      vertex 84.2414 10.7102 0
      vertex 84.2414 10.7102 45
    endloop
  endfacet
  facet normal 0.923879 -0.382685 0
    outer loop
      vertex 84.2414 10.7102 0
      vertex 83.3106 8.46315 45
      vertex 83.3106 8.46315 0
    endloop
  endfacet
  facet normal 0.996917 -0.0784604 0
    outer loop
      vertex 84.8092 13.0753 45
      vertex 85 15.5 0
      vertex 85 15.5 45
    endloop
  endfacet
  facet normal 0.996917 -0.0784604 0
    outer loop
      vertex 85 15.5 0
      vertex 84.8092 13.0753 45
      vertex 84.8092 13.0753 0
    endloop
  endfacet
  facet normal 0.0784588 -0.996917 0
    outer loop
      vertex 69.5 0 0
      vertex 71.9247 0.19083 45
      vertex 69.5 0 45
    endloop
  endfacet
  facet normal 0.0784588 -0.996917 0
    outer loop
      vertex 71.9247 0.19083 45
      vertex 69.5 0 0
      vertex 71.9247 0.19083 0
    endloop
  endfacet
  facet normal 0.382684 -0.923879 0
    outer loop
      vertex 9.82512 26.6376 3
      vertex 11.6373 27.3882 45
      vertex 9.82512 26.6376 45
    endloop
  endfacet
  facet normal 0.382684 -0.923879 0
    outer loop
      vertex 11.6373 27.3882 45
      vertex 9.82512 26.6376 3
      vertex 11.6373 27.3882 3
    endloop
  endfacet
  facet normal 0.85264 -0.522499 0
    outer loop
      vertex 4.36242 21.1749 45
      vertex 5.38729 22.8473 3
      vertex 5.38729 22.8473 45
    endloop
  endfacet
  facet normal 0.85264 -0.522499 0
    outer loop
      vertex 5.38729 22.8473 3
      vertex 4.36242 21.1749 45
      vertex 4.36242 21.1749 3
    endloop
  endfacet
  facet normal 0.92388 0.382683 0
    outer loop
      vertex 3.87577 11 45
      vertex 4.36242 9.82512 45
      vertex 3.87577 11 36.5
    endloop
  endfacet
  facet normal 0.923879 0.382684 -1.7959e-008
    outer loop
      vertex 4.36242 9.82512 3
      vertex 3.61179 11.6373 34.2397
      vertex 3.71462 11.389 34.6697
    endloop
  endfacet
  facet normal 0.92388 0.382683 7.46538e-009
    outer loop
      vertex 4.36242 9.82512 3
      vertex 3.71462 11.389 34.6697
      vertex 3.83504 11.0983 35.5644
    endloop
  endfacet
  facet normal 0.92388 0.382683 8.03241e-009
    outer loop
      vertex 4.36242 9.82512 3
      vertex 3.83504 11.0983 35.5644
      vertex 3.87577 11 36.5
    endloop
  endfacet
  facet normal 0.92388 0.382683 -0
    outer loop
      vertex 4.36242 9.82512 3
      vertex 3.87577 11 36.5
      vertex 4.36242 9.82512 45
    endloop
  endfacet
  facet normal 0.92388 0.382683 0
    outer loop
      vertex 3.61179 11.6373 34.2397
      vertex 4.36242 9.82512 3
      vertex 3.61179 11.6373 3
    endloop
  endfacet
  facet normal 0.996917 -0.0784593 0
    outer loop
      vertex 3.10944 16.8906 32.2202
      vertex 3.1539 17.4554 3
      vertex 3.1539 17.4554 32.4717
    endloop
  endfacet
  facet normal 0.996917 -0.0784596 -5.61257e-009
    outer loop
      vertex 3.03702 15.9704 32.0247
      vertex 3.1539 17.4554 3
      vertex 3.10944 16.8906 32.2202
    endloop
  endfacet
  facet normal 0.996917 -0.0784595 0
    outer loop
      vertex 3 15.5 3
      vertex 3.03702 15.9704 32.0247
      vertex 3 15.5 32.0247
    endloop
  endfacet
  facet normal 0.996917 -0.0784595 -3.3299e-010
    outer loop
      vertex 3.03702 15.9704 32.0247
      vertex 3 15.5 3
      vertex 3.1539 17.4554 3
    endloop
  endfacet
  facet normal 0.760406 -0.649448 0
    outer loop
      vertex 5.38729 22.8473 45
      vertex 6.66117 24.3388 3
      vertex 6.66117 24.3388 45
    endloop
  endfacet
  facet normal 0.760406 -0.649448 0
    outer loop
      vertex 6.66117 24.3388 3
      vertex 5.38729 22.8473 45
      vertex 5.38729 22.8473 3
    endloop
  endfacet
  facet normal 0.522498 -0.85264 0
    outer loop
      vertex 8.15269 25.6127 3
      vertex 9.82512 26.6376 45
      vertex 8.15269 25.6127 45
    endloop
  endfacet
  facet normal 0.522498 -0.85264 0
    outer loop
      vertex 9.82512 26.6376 45
      vertex 8.15269 25.6127 3
      vertex 9.82512 26.6376 3
    endloop
  endfacet
  facet normal 0.0784594 -0.996917 0
    outer loop
      vertex 13.5446 27.8461 3
      vertex 15.5 28 45
      vertex 13.5446 27.8461 45
    endloop
  endfacet
  facet normal 0.0784594 -0.996917 0
    outer loop
      vertex 15.5 28 45
      vertex 13.5446 27.8461 3
      vertex 15.5 28 3
    endloop
  endfacet
  facet normal 0.649448 -0.760406 0
    outer loop
      vertex 6.66117 24.3388 3
      vertex 8.15269 25.6127 45
      vertex 6.66117 24.3388 45
    endloop
  endfacet
  facet normal 0.649448 -0.760406 0
    outer loop
      vertex 8.15269 25.6127 45
      vertex 6.66117 24.3388 3
      vertex 8.15269 25.6127 3
    endloop
  endfacet
  facet normal 0.0784594 0.996917 -0
    outer loop
      vertex 15.5 3 3
      vertex 13.5446 3.1539 45
      vertex 15.5 3 45
    endloop
  endfacet
  facet normal 0.0784594 0.996917 0
    outer loop
      vertex 13.5446 3.1539 45
      vertex 15.5 3 3
      vertex 13.5446 3.1539 3
    endloop
  endfacet
  facet normal 0.649448 0.760406 -0
    outer loop
      vertex 8.15269 5.38729 3
      vertex 6.66117 6.66117 45
      vertex 8.15269 5.38729 45
    endloop
  endfacet
  facet normal 0.649448 0.760406 0
    outer loop
      vertex 6.66117 6.66117 45
      vertex 8.15269 5.38729 3
      vertex 6.66117 6.66117 3
    endloop
  endfacet
  facet normal 0.85264 0.522499 0
    outer loop
      vertex 5.38729 8.15269 45
      vertex 4.36242 9.82512 3
      vertex 4.36242 9.82512 45
    endloop
  endfacet
  facet normal 0.85264 0.522499 0
    outer loop
      vertex 4.36242 9.82512 3
      vertex 5.38729 8.15269 45
      vertex 5.38729 8.15269 3
    endloop
  endfacet
  facet normal 0.996917 0.0784595 0
    outer loop
      vertex 3.03702 15.0296 32.0247
      vertex 3 15.5 3
      vertex 3 15.5 32.0247
    endloop
  endfacet
  facet normal 0.996917 0.0784595 -4.04713e-009
    outer loop
      vertex 3.1539 13.5446 3
      vertex 3.03702 15.0296 32.0247
      vertex 3.10944 14.1094 32.2202
    endloop
  endfacet
  facet normal 0.996917 0.0784593 -0
    outer loop
      vertex 3.1539 13.5446 3
      vertex 3.10944 14.1094 32.2202
      vertex 3.1539 13.5446 32.4717
    endloop
  endfacet
  facet normal 0.996917 0.0784594 -9.53121e-010
    outer loop
      vertex 3.03702 15.0296 32.0247
      vertex 3.1539 13.5446 3
      vertex 3 15.5 3
    endloop
  endfacet
  facet normal 0 0 1
    outer loop
      vertex 81.8461 17.4554 3
      vertex 81.8461 13.5446 3
      vertex 82 15.5 3
    endloop
  endfacet
  facet normal 0 0 1
    outer loop
      vertex 81.3882 19.3627 3
      vertex 81.8461 13.5446 3
      vertex 81.8461 17.4554 3
    endloop
  endfacet
  facet normal 0 0 1
    outer loop
      vertex 81.3882 19.3627 3
      vertex 81.3882 11.6373 3
      vertex 81.8461 13.5446 3
    endloop
  endfacet
  facet normal 0 0 1
    outer loop
      vertex 80.6376 21.1749 3
      vertex 81.3882 11.6373 3
      vertex 81.3882 19.3627 3
    endloop
  endfacet
  facet normal 0 0 1
    outer loop
      vertex 80.6376 21.1749 3
      vertex 80.6376 9.82512 3
      vertex 81.3882 11.6373 3
    endloop
  endfacet
  facet normal 0 0 1
    outer loop
      vertex 79.6127 22.8473 3
      vertex 80.6376 9.82512 3
      vertex 80.6376 21.1749 3
    endloop
  endfacet
  facet normal 0 0 1
    outer loop
      vertex 79.6127 22.8473 3
      vertex 79.6127 8.15269 3
      vertex 80.6376 9.82512 3
    endloop
  endfacet
  facet normal 0 0 1
    outer loop
      vertex 78.3388 24.3388 3
      vertex 79.6127 8.15269 3
      vertex 79.6127 22.8473 3
    endloop
  endfacet
  facet normal 0 0 1
    outer loop
      vertex 78.3388 24.3388 3
      vertex 78.3388 6.66117 3
      vertex 79.6127 8.15269 3
    endloop
  endfacet
  facet normal 0 0 1
    outer loop
      vertex 76.8473 25.6127 3
      vertex 78.3388 6.66117 3
      vertex 78.3388 24.3388 3
    endloop
  endfacet
  facet normal 0 0 1
    outer loop
      vertex 76.8473 25.6127 3
      vertex 76.8473 5.38729 3
      vertex 78.3388 6.66117 3
    endloop
  endfacet
  facet normal 0 0 1
    outer loop
      vertex 75.1749 26.6376 3
      vertex 76.8473 5.38729 3
      vertex 76.8473 25.6127 3
    endloop
  endfacet
  facet normal 0 0 1
    outer loop
      vertex 75.1749 26.6376 3
      vertex 75.1749 4.36242 3
      vertex 76.8473 5.38729 3
    endloop
  endfacet
  facet normal 0 0 1
    outer loop
      vertex 73.3627 27.3882 3
      vertex 75.1749 4.36242 3
      vertex 75.1749 26.6376 3
    endloop
  endfacet
  facet normal 0 0 1
    outer loop
      vertex 73.3627 27.3882 3
      vertex 73.3627 3.61179 3
      vertex 75.1749 4.36242 3
    endloop
  endfacet
  facet normal 0 0 1
    outer loop
      vertex 71.4554 27.8461 3
      vertex 73.3627 3.61179 3
      vertex 73.3627 27.3882 3
    endloop
  endfacet
  facet normal 0 0 1
    outer loop
      vertex 71.4554 27.8461 3
      vertex 71.4554 3.1539 3
      vertex 73.3627 3.61179 3
    endloop
  endfacet
  facet normal 0 0 1
    outer loop
      vertex 69.5 28 3
      vertex 71.4554 3.1539 3
      vertex 71.4554 27.8461 3
    endloop
  endfacet
  facet normal 0 0 1
    outer loop
      vertex 69.5 28 3
      vertex 69.5 3 3
      vertex 71.4554 3.1539 3
    endloop
  endfacet
  facet normal -0 0 1
    outer loop
      vertex 15.5 28 3
      vertex 69.5 3 3
      vertex 69.5 28 3
    endloop
  endfacet
  facet normal 0 0 1
    outer loop
      vertex 15.5 28 3
      vertex 15.5 3 3
      vertex 69.5 3 3
    endloop
  endfacet
  facet normal -0 0 1
    outer loop
      vertex 13.5446 27.8461 3
      vertex 15.5 3 3
      vertex 15.5 28 3
    endloop
  endfacet
  facet normal 0 0 1
    outer loop
      vertex 13.5446 27.8461 3
      vertex 13.5446 3.1539 3
      vertex 15.5 3 3
    endloop
  endfacet
  facet normal -0 0 1
    outer loop
      vertex 11.6373 27.3882 3
      vertex 13.5446 3.1539 3
      vertex 13.5446 27.8461 3
    endloop
  endfacet
  facet normal 0 0 1
    outer loop
      vertex 11.6373 27.3882 3
      vertex 11.6373 3.61179 3
      vertex 13.5446 3.1539 3
    endloop
  endfacet
  facet normal -0 0 1
    outer loop
      vertex 9.82512 26.6376 3
      vertex 11.6373 3.61179 3
      vertex 11.6373 27.3882 3
    endloop
  endfacet
  facet normal 0 0 1
    outer loop
      vertex 9.82512 26.6376 3
      vertex 9.82512 4.36242 3
      vertex 11.6373 3.61179 3
    endloop
  endfacet
  facet normal -0 0 1
    outer loop
      vertex 8.15269 25.6127 3
      vertex 9.82512 4.36242 3
      vertex 9.82512 26.6376 3
    endloop
  endfacet
  facet normal 0 0 1
    outer loop
      vertex 8.15269 25.6127 3
      vertex 8.15269 5.38729 3
      vertex 9.82512 4.36242 3
    endloop
  endfacet
  facet normal -0 0 1
    outer loop
      vertex 6.66117 24.3388 3
      vertex 8.15269 5.38729 3
      vertex 8.15269 25.6127 3
    endloop
  endfacet
  facet normal 0 0 1
    outer loop
      vertex 6.66117 24.3388 3
      vertex 6.66117 6.66117 3
      vertex 8.15269 5.38729 3
    endloop
  endfacet
  facet normal -0 0 1
    outer loop
      vertex 5.38729 22.8473 3
      vertex 6.66117 6.66117 3
      vertex 6.66117 24.3388 3
    endloop
  endfacet
  facet normal 0 0 1
    outer loop
      vertex 5.38729 22.8473 3
      vertex 5.38729 8.15269 3
      vertex 6.66117 6.66117 3
    endloop
  endfacet
  facet normal -0 0 1
    outer loop
      vertex 4.36242 21.1749 3
      vertex 5.38729 8.15269 3
      vertex 5.38729 22.8473 3
    endloop
  endfacet
  facet normal 0 0 1
    outer loop
      vertex 4.36242 21.1749 3
      vertex 4.36242 9.82512 3
      vertex 5.38729 8.15269 3
    endloop
  endfacet
  facet normal -0 0 1
    outer loop
      vertex 3.61179 19.3627 3
      vertex 4.36242 9.82512 3
      vertex 4.36242 21.1749 3
    endloop
  endfacet
  facet normal 0 0 1
    outer loop
      vertex 3.61179 19.3627 3
      vertex 3.61179 11.6373 3
      vertex 4.36242 9.82512 3
    endloop
  endfacet
  facet normal -0 0 1
    outer loop
      vertex 3.1539 17.4554 3
      vertex 3.61179 11.6373 3
      vertex 3.61179 19.3627 3
    endloop
  endfacet
  facet normal 0 0 1
    outer loop
      vertex 3.1539 17.4554 3
      vertex 3.1539 13.5446 3
      vertex 3.61179 11.6373 3
    endloop
  endfacet
  facet normal 0 -0 1
    outer loop
      vertex 3.1539 13.5446 3
      vertex 3.1539 17.4554 3
      vertex 3 15.5 3
    endloop
  endfacet
  facet normal 0.760406 0.649448 0
    outer loop
      vertex 6.66117 6.66117 45
      vertex 5.38729 8.15269 3
      vertex 5.38729 8.15269 45
    endloop
  endfacet
  facet normal 0.760406 0.649448 0
    outer loop
      vertex 5.38729 8.15269 3
      vertex 6.66117 6.66117 45
      vertex 6.66117 6.66117 3
    endloop
  endfacet
  facet normal 0.92388 -0.382683 0
    outer loop
      vertex 3.87577 20 36.5
      vertex 4.36242 21.1749 45
      vertex 3.87577 20 45
    endloop
  endfacet
  facet normal 0.92388 -0.382683 0
    outer loop
      vertex 4.36242 21.1749 45
      vertex 3.87577 20 36.5
      vertex 4.36242 21.1749 3
    endloop
  endfacet
  facet normal 0.923881 -0.382681 1.05626e-007
    outer loop
      vertex 3.83504 19.9017 35.5644
      vertex 4.36242 21.1749 3
      vertex 3.87577 20 36.5
    endloop
  endfacet
  facet normal 0.923879 -0.382684 -4.63501e-008
    outer loop
      vertex 3.71462 19.611 34.6697
      vertex 4.36242 21.1749 3
      vertex 3.83504 19.9017 35.5644
    endloop
  endfacet
  facet normal 0.923879 -0.382685 -8.48388e-008
    outer loop
      vertex 3.61179 19.3627 34.2397
      vertex 4.36242 21.1749 3
      vertex 3.71462 19.611 34.6697
    endloop
  endfacet
  facet normal 0.92388 -0.382683 0
    outer loop
      vertex 4.36242 21.1749 3
      vertex 3.61179 19.3627 34.2397
      vertex 3.61179 19.3627 3
    endloop
  endfacet
  facet normal 0.97237 -0.233443 0
    outer loop
      vertex 3.55846 19.1406 33.855
      vertex 3.61179 19.3627 3
      vertex 3.61179 19.3627 34.2397
    endloop
  endfacet
  facet normal 0.97237 -0.233446 -2.13109e-008
    outer loop
      vertex 3.40734 18.5111 33.1558
      vertex 3.61179 19.3627 3
      vertex 3.55846 19.1406 33.855
    endloop
  endfacet
  facet normal 0.97237 -0.233446 -1.18699e-008
    outer loop
      vertex 3.22462 17.75 32.6029
      vertex 3.61179 19.3627 3
      vertex 3.40734 18.5111 33.1558
    endloop
  endfacet
  facet normal 0.97237 -0.233445 4.89763e-008
    outer loop
      vertex 3.1539 17.4554 32.4717
      vertex 3.61179 19.3627 3
      vertex 3.22462 17.75 32.6029
    endloop
  endfacet
  facet normal 0.97237 -0.233445 0
    outer loop
      vertex 3.61179 19.3627 3
      vertex 3.1539 17.4554 32.4717
      vertex 3.1539 17.4554 3
    endloop
  endfacet
  facet normal 0.233445 -0.97237 0
    outer loop
      vertex 11.6373 27.3882 3
      vertex 13.5446 27.8461 45
      vertex 11.6373 27.3882 45
    endloop
  endfacet
  facet normal 0.233445 -0.97237 0
    outer loop
      vertex 13.5446 27.8461 45
      vertex 11.6373 27.3882 3
      vertex 13.5446 27.8461 3
    endloop
  endfacet
  facet normal 0.382683 0.92388 -0
    outer loop
      vertex 11.6373 3.61179 3
      vertex 9.82512 4.36242 45
      vertex 11.6373 3.61179 45
    endloop
  endfacet
  facet normal 0.382683 0.92388 0
    outer loop
      vertex 9.82512 4.36242 45
      vertex 11.6373 3.61179 3
      vertex 9.82512 4.36242 3
    endloop
  endfacet
  facet normal 0.522499 0.85264 -0
    outer loop
      vertex 9.82512 4.36242 3
      vertex 8.15269 5.38729 45
      vertex 9.82512 4.36242 45
    endloop
  endfacet
  facet normal 0.522499 0.85264 0
    outer loop
      vertex 8.15269 5.38729 45
      vertex 9.82512 4.36242 3
      vertex 8.15269 5.38729 3
    endloop
  endfacet
  facet normal 0.97237 0.233445 1.61203e-008
    outer loop
      vertex 3.61179 11.6373 3
      vertex 3.1539 13.5446 32.4717
      vertex 3.22462 13.25 32.6029
    endloop
  endfacet
  facet normal 0.97237 0.233446 -4.63564e-009
    outer loop
      vertex 3.61179 11.6373 3
      vertex 3.22462 13.25 32.6029
      vertex 3.40734 12.4889 33.1558
    endloop
  endfacet
  facet normal 0.97237 0.233446 -4.46859e-009
    outer loop
      vertex 3.61179 11.6373 3
      vertex 3.40734 12.4889 33.1558
      vertex 3.55846 11.8594 33.855
    endloop
  endfacet
  facet normal 0.97237 0.233445 -0
    outer loop
      vertex 3.61179 11.6373 3
      vertex 3.55846 11.8594 33.855
      vertex 3.61179 11.6373 34.2397
    endloop
  endfacet
  facet normal 0.97237 0.233445 0
    outer loop
      vertex 3.1539 13.5446 32.4717
      vertex 3.61179 11.6373 3
      vertex 3.1539 13.5446 3
    endloop
  endfacet
  facet normal 0.233445 0.97237 -0
    outer loop
      vertex 13.5446 3.1539 3
      vertex 11.6373 3.61179 45
      vertex 13.5446 3.1539 45
    endloop
  endfacet
  facet normal 0.233445 0.97237 0
    outer loop
      vertex 11.6373 3.61179 45
      vertex 13.5446 3.1539 3
      vertex 11.6373 3.61179 3
    endloop
  endfacet
  facet normal -0.923879 -0.382684 0
    outer loop
      vertex 81.3882 19.3627 3
      vertex 80.6376 21.1749 45
      vertex 80.6376 21.1749 3
    endloop
  endfacet
  facet normal -0.923879 -0.382684 0
    outer loop
      vertex 80.6376 21.1749 45
      vertex 81.3882 19.3627 3
      vertex 81.3882 19.3627 45
    endloop
  endfacet
  facet normal -0.852639 -0.5225 0
    outer loop
      vertex 80.6376 21.1749 3
      vertex 79.6127 22.8473 45
      vertex 79.6127 22.8473 3
    endloop
  endfacet
  facet normal -0.852639 -0.5225 0
    outer loop
      vertex 79.6127 22.8473 45
      vertex 80.6376 21.1749 3
      vertex 80.6376 21.1749 45
    endloop
  endfacet
  facet normal -0.0784595 -0.996917 0
    outer loop
      vertex 69.5 28 3
      vertex 71.4554 27.8461 45
      vertex 69.5 28 45
    endloop
  endfacet
  facet normal -0.0784595 -0.996917 -0
    outer loop
      vertex 71.4554 27.8461 45
      vertex 69.5 28 3
      vertex 71.4554 27.8461 3
    endloop
  endfacet
  facet normal -0.233445 -0.97237 0
    outer loop
      vertex 71.4554 27.8461 3
      vertex 73.3627 27.3882 45
      vertex 71.4554 27.8461 45
    endloop
  endfacet
  facet normal -0.233445 -0.97237 -0
    outer loop
      vertex 73.3627 27.3882 45
      vertex 71.4554 27.8461 3
      vertex 73.3627 27.3882 3
    endloop
  endfacet
  facet normal -0.996917 0.0784614 0
    outer loop
      vertex 81.8461 13.5446 3
      vertex 82 15.5 45
      vertex 82 15.5 3
    endloop
  endfacet
  facet normal -0.996917 0.0784614 0
    outer loop
      vertex 82 15.5 45
      vertex 81.8461 13.5446 3
      vertex 81.8461 13.5446 45
    endloop
  endfacet
  facet normal -0.233446 0.97237 0
    outer loop
      vertex 73.3627 3.61179 3
      vertex 71.4554 3.1539 45
      vertex 73.3627 3.61179 45
    endloop
  endfacet
  facet normal -0.233446 0.97237 0
    outer loop
      vertex 71.4554 3.1539 45
      vertex 73.3627 3.61179 3
      vertex 71.4554 3.1539 3
    endloop
  endfacet
  facet normal -0.97237 -0.233443 0
    outer loop
      vertex 81.8461 17.4554 3
      vertex 81.3882 19.3627 45
      vertex 81.3882 19.3627 3
    endloop
  endfacet
  facet normal -0.97237 -0.233443 0
    outer loop
      vertex 81.3882 19.3627 45
      vertex 81.8461 17.4554 3
      vertex 81.8461 17.4554 45
    endloop
  endfacet
  facet normal -0.649447 -0.760407 0
    outer loop
      vertex 76.8473 25.6127 3
      vertex 78.3388 24.3388 45
      vertex 76.8473 25.6127 45
    endloop
  endfacet
  facet normal -0.649447 -0.760407 -0
    outer loop
      vertex 78.3388 24.3388 45
      vertex 76.8473 25.6127 3
      vertex 78.3388 24.3388 3
    endloop
  endfacet
  facet normal -0.522499 -0.85264 0
    outer loop
      vertex 75.1749 26.6376 3
      vertex 76.8473 25.6127 45
      vertex 75.1749 26.6376 45
    endloop
  endfacet
  facet normal -0.522499 -0.85264 -0
    outer loop
      vertex 76.8473 25.6127 45
      vertex 75.1749 26.6376 3
      vertex 76.8473 25.6127 3
    endloop
  endfacet
  facet normal -0.996917 -0.0784614 0
    outer loop
      vertex 82 15.5 3
      vertex 81.8461 17.4554 45
      vertex 81.8461 17.4554 3
    endloop
  endfacet
  facet normal -0.996917 -0.0784614 0
    outer loop
      vertex 81.8461 17.4554 45
      vertex 82 15.5 3
      vertex 82 15.5 45
    endloop
  endfacet
  facet normal -0.522499 0.85264 0
    outer loop
      vertex 76.8473 5.38729 3
      vertex 75.1749 4.36242 45
      vertex 76.8473 5.38729 45
    endloop
  endfacet
  facet normal -0.522499 0.85264 0
    outer loop
      vertex 75.1749 4.36242 45
      vertex 76.8473 5.38729 3
      vertex 75.1749 4.36242 3
    endloop
  endfacet
  facet normal -0.97237 0.233443 0
    outer loop
      vertex 81.3882 11.6373 3
      vertex 81.8461 13.5446 45
      vertex 81.8461 13.5446 3
    endloop
  endfacet
  facet normal -0.97237 0.233443 0
    outer loop
      vertex 81.8461 13.5446 45
      vertex 81.3882 11.6373 3
      vertex 81.3882 11.6373 45
    endloop
  endfacet
  facet normal -0.760407 -0.649446 0
    outer loop
      vertex 79.6127 22.8473 3
      vertex 78.3388 24.3388 45
      vertex 78.3388 24.3388 3
    endloop
  endfacet
  facet normal -0.760407 -0.649446 0
    outer loop
      vertex 78.3388 24.3388 45
      vertex 79.6127 22.8473 3
      vertex 79.6127 22.8473 45
    endloop
  endfacet
  facet normal -0.382683 -0.92388 0
    outer loop
      vertex 73.3627 27.3882 3
      vertex 75.1749 26.6376 45
      vertex 73.3627 27.3882 45
    endloop
  endfacet
  facet normal -0.382683 -0.92388 -0
    outer loop
      vertex 75.1749 26.6376 45
      vertex 73.3627 27.3882 3
      vertex 75.1749 26.6376 3
    endloop
  endfacet
  facet normal -0.852639 0.5225 0
    outer loop
      vertex 79.6127 8.15269 3
      vertex 80.6376 9.82512 45
      vertex 80.6376 9.82512 3
    endloop
  endfacet
  facet normal -0.852639 0.5225 0
    outer loop
      vertex 80.6376 9.82512 45
      vertex 79.6127 8.15269 3
      vertex 79.6127 8.15269 45
    endloop
  endfacet
  facet normal -0.0784595 0.996917 0
    outer loop
      vertex 71.4554 3.1539 3
      vertex 69.5 3 45
      vertex 71.4554 3.1539 45
    endloop
  endfacet
  facet normal -0.0784595 0.996917 0
    outer loop
      vertex 69.5 3 45
      vertex 71.4554 3.1539 3
      vertex 69.5 3 3
    endloop
  endfacet
  facet normal -0.382683 0.92388 0
    outer loop
      vertex 75.1749 4.36242 3
      vertex 73.3627 3.61179 45
      vertex 75.1749 4.36242 45
    endloop
  endfacet
  facet normal -0.382683 0.92388 0
    outer loop
      vertex 73.3627 3.61179 45
      vertex 75.1749 4.36242 3
      vertex 73.3627 3.61179 3
    endloop
  endfacet
  facet normal -0.760407 0.649446 0
    outer loop
      vertex 78.3388 6.66117 3
      vertex 79.6127 8.15269 45
      vertex 79.6127 8.15269 3
    endloop
  endfacet
  facet normal -0.760407 0.649446 0
    outer loop
      vertex 79.6127 8.15269 45
      vertex 78.3388 6.66117 3
      vertex 78.3388 6.66117 45
    endloop
  endfacet
  facet normal -0.923879 0.382684 0
    outer loop
      vertex 80.6376 9.82512 3
      vertex 81.3882 11.6373 45
      vertex 81.3882 11.6373 3
    endloop
  endfacet
  facet normal -0.923879 0.382684 0
    outer loop
      vertex 81.3882 11.6373 45
      vertex 80.6376 9.82512 3
      vertex 80.6376 9.82512 45
    endloop
  endfacet
  facet normal -0.649447 0.760407 0
    outer loop
      vertex 78.3388 6.66117 3
      vertex 76.8473 5.38729 45
      vertex 78.3388 6.66117 45
    endloop
  endfacet
  facet normal -0.649447 0.760407 0
    outer loop
      vertex 76.8473 5.38729 45
      vertex 78.3388 6.66117 3
      vertex 76.8473 5.38729 3
    endloop
  endfacet
  facet normal 0 1 0
    outer loop
      vertex 69.5 3 45
      vertex 61.5 3 19
      vertex 61.5 3 45
    endloop
  endfacet
  facet normal 0 1 0
    outer loop
      vertex 61.5 3 19
      vertex 48.0176 3 6
      vertex 48.0176 3 19
    endloop
  endfacet
  facet normal 0 1 0
    outer loop
      vertex 48.0176 3 6
      vertex 69.5 3 3
      vertex 36.9824 3 6
    endloop
  endfacet
  facet normal 0 1 0
    outer loop
      vertex 61.5 3 19
      vertex 69.5 3 3
      vertex 48.0176 3 6
    endloop
  endfacet
  facet normal 0 1 -0
    outer loop
      vertex 69.5 3 3
      vertex 61.5 3 19
      vertex 69.5 3 45
    endloop
  endfacet
  facet normal 0 1 0
    outer loop
      vertex 36.9824 3 19
      vertex 36.9824 3 6
      vertex 23.5 3 19
    endloop
  endfacet
  facet normal 0 1 -0
    outer loop
      vertex 23.5 3 19
      vertex 15.5 3 45
      vertex 23.5 3 45
    endloop
  endfacet
  facet normal 0 1 0
    outer loop
      vertex 23.5 3 19
      vertex 15.5 3 3
      vertex 15.5 3 45
    endloop
  endfacet
  facet normal 0 1 0
    outer loop
      vertex 36.9824 3 6
      vertex 15.5 3 3
      vertex 23.5 3 19
    endloop
  endfacet
  facet normal 0 1 0
    outer loop
      vertex 15.5 3 3
      vertex 36.9824 3 6
      vertex 69.5 3 3
    endloop
  endfacet
  facet normal 0 -1 0
    outer loop
      vertex 15.5 28 3
      vertex 69.5 28 45
      vertex 15.5 28 45
    endloop
  endfacet
  facet normal 0 -1 -0
    outer loop
      vertex 69.5 28 45
      vertex 15.5 28 3
      vertex 69.5 28 3
    endloop
  endfacet
  facet normal 0 -0.994522 0.10453
    outer loop
      vertex 3.83504 19.9017 35.5644
      vertex 0.689057 20 36.5
      vertex 0.665449 19.9017 35.5644
    endloop
  endfacet
  facet normal 0 -0.994522 0.10453
    outer loop
      vertex 0.689057 20 36.5
      vertex 3.83504 19.9017 35.5644
      vertex 3.87577 20 36.5
    endloop
  endfacet
  facet normal 0 -0.207912 0.978147
    outer loop
      vertex 0.10944 16.8906 32.2202
      vertex 3.03702 15.9704 32.0247
      vertex 3.10944 16.8906 32.2202
    endloop
  endfacet
  facet normal 0 -0.207912 0.978147
    outer loop
      vertex 3.03702 15.9704 32.0247
      vertex 0.10944 16.8906 32.2202
      vertex 0.0370195 15.9704 32.0247
    endloop
  endfacet
  facet normal 0 -0.951057 0.309015
    outer loop
      vertex 3.71462 19.611 34.6697
      vertex 0.665449 19.9017 35.5644
      vertex 0.595656 19.611 34.6697
    endloop
  endfacet
  facet normal 0 -0.951057 0.309015
    outer loop
      vertex 0.665449 19.9017 35.5644
      vertex 3.71462 19.611 34.6697
      vertex 3.83504 19.9017 35.5644
    endloop
  endfacet
  facet normal 0 0.587786 0.809017
    outer loop
      vertex 3.22462 13.25 32.6029
      vertex 0.331601 12.4889 33.1558
      vertex 3.40734 12.4889 33.1558
    endloop
  endfacet
  facet normal 1.58385e-007 0.587785 0.809017
    outer loop
      vertex 3.22462 13.25 32.6029
      vertex 0.19083 13.0753 32.7298
      vertex 0.331601 12.4889 33.1558
    endloop
  endfacet
  facet normal 0 0.587787 0.809016
    outer loop
      vertex 0.19083 13.0753 32.7298
      vertex 3.22462 13.25 32.6029
      vertex 0.177078 13.25 32.6029
    endloop
  endfacet
  facet normal 0 0.866026 0.499999
    outer loop
      vertex 3.61179 11.6373 34.2397
      vertex 0.595656 11.389 34.6697
      vertex 3.71462 11.389 34.6697
    endloop
  endfacet
  facet normal 1.65874e-007 0.866026 0.5
    outer loop
      vertex 3.55846 11.8594 33.855
      vertex 0.595656 11.389 34.6697
      vertex 3.61179 11.6373 34.2397
    endloop
  endfacet
  facet normal 0 0.866026 0.499999
    outer loop
      vertex 0.595656 11.389 34.6697
      vertex 3.55846 11.8594 33.855
      vertex 0.482728 11.8594 33.855
    endloop
  endfacet
  facet normal 0 -0.587786 0.809017
    outer loop
      vertex 0.331601 18.5111 33.1558
      vertex 3.22462 17.75 32.6029
      vertex 3.40734 18.5111 33.1558
    endloop
  endfacet
  facet normal 3.94947e-007 -0.587785 0.809017
    outer loop
      vertex 0.19083 17.9247 32.7298
      vertex 3.22462 17.75 32.6029
      vertex 0.331601 18.5111 33.1558
    endloop
  endfacet
  facet normal 0 -0.587789 0.809014
    outer loop
      vertex 3.22462 17.75 32.6029
      vertex 0.19083 17.9247 32.7298
      vertex 0.177078 17.75 32.6029
    endloop
  endfacet
  facet normal 0 -0.866027 0.499997
    outer loop
      vertex 0.595656 19.611 34.6697
      vertex 3.61179 19.3627 34.2397
      vertex 3.71462 19.611 34.6697
    endloop
  endfacet
  facet normal 0 -0.866025 0.5
    outer loop
      vertex 3.55846 19.1406 33.855
      vertex 0.595656 19.611 34.6697
      vertex 0.482728 19.1406 33.855
    endloop
  endfacet
  facet normal 1.03456e-006 -0.866024 0.500003
    outer loop
      vertex 0.595656 19.611 34.6697
      vertex 3.55846 19.1406 33.855
      vertex 3.61179 19.3627 34.2397
    endloop
  endfacet
  facet normal 0 0 1
    outer loop
      vertex 3.03702 15.9704 32.0247
      vertex 0.0370195 15.9704 32.0247
      vertex 3 15.5 32.0247
    endloop
  endfacet
  facet normal 0 0 1
    outer loop
      vertex 9.93727e-016 15.5 32.0247
      vertex 3 15.5 32.0247
      vertex 0.0370195 15.9704 32.0247
    endloop
  endfacet
  facet normal 0 -0 1
    outer loop
      vertex 0.0370194 15.0296 32.0247
      vertex 3 15.5 32.0247
      vertex 9.93727e-016 15.5 32.0247
    endloop
  endfacet
  facet normal 0 0 1
    outer loop
      vertex 3 15.5 32.0247
      vertex 0.0370194 15.0296 32.0247
      vertex 3.03702 15.0296 32.0247
    endloop
  endfacet
  facet normal 0 0.994522 0.104529
    outer loop
      vertex 3.83504 11.0983 35.5644
      vertex 0.689057 11 36.5
      vertex 3.87577 11 36.5
    endloop
  endfacet
  facet normal 0 0.994522 0.104529
    outer loop
      vertex 0.689057 11 36.5
      vertex 3.83504 11.0983 35.5644
      vertex 0.665449 11.0983 35.5644
    endloop
  endfacet
  facet normal 0 0.743144 0.669132
    outer loop
      vertex 3.40734 12.4889 33.1558
      vertex 0.482728 11.8594 33.855
      vertex 3.55846 11.8594 33.855
    endloop
  endfacet
  facet normal 0 0.743144 0.669132
    outer loop
      vertex 0.482728 11.8594 33.855
      vertex 3.40734 12.4889 33.1558
      vertex 0.331601 12.4889 33.1558
    endloop
  endfacet
  facet normal 0 -0.406731 0.913548
    outer loop
      vertex 0.177078 17.75 32.6029
      vertex 3.1539 17.4554 32.4717
      vertex 3.22462 17.75 32.6029
    endloop
  endfacet
  facet normal -1.04495e-006 -0.40674 0.913544
    outer loop
      vertex 0.177078 17.75 32.6029
      vertex 3.10944 16.8906 32.2202
      vertex 3.1539 17.4554 32.4717
    endloop
  endfacet
  facet normal 0 -0.406737 0.913545
    outer loop
      vertex 3.10944 16.8906 32.2202
      vertex 0.177078 17.75 32.6029
      vertex 0.10944 16.8906 32.2202
    endloop
  endfacet
  facet normal 0 0.406732 0.913547
    outer loop
      vertex 3.1539 13.5446 32.4717
      vertex 0.177078 13.25 32.6029
      vertex 3.22462 13.25 32.6029
    endloop
  endfacet
  facet normal -9.15653e-007 0.40674 0.913544
    outer loop
      vertex 3.10944 14.1094 32.2202
      vertex 0.177078 13.25 32.6029
      vertex 3.1539 13.5446 32.4717
    endloop
  endfacet
  facet normal 0 0.406737 0.913545
    outer loop
      vertex 0.177078 13.25 32.6029
      vertex 3.10944 14.1094 32.2202
      vertex 0.10944 14.1094 32.2202
    endloop
  endfacet
  facet normal 0 0.951057 0.309016
    outer loop
      vertex 3.71462 11.389 34.6697
      vertex 0.665449 11.0983 35.5644
      vertex 3.83504 11.0983 35.5644
    endloop
  endfacet
  facet normal 0 0.951057 0.309016
    outer loop
      vertex 0.665449 11.0983 35.5644
      vertex 3.71462 11.389 34.6697
      vertex 0.595656 11.389 34.6697
    endloop
  endfacet
  facet normal 0 -0.743144 0.669131
    outer loop
      vertex 3.40734 18.5111 33.1558
      vertex 0.482728 19.1406 33.855
      vertex 0.331601 18.5111 33.1558
    endloop
  endfacet
  facet normal 0 -0.743144 0.669131
    outer loop
      vertex 0.482728 19.1406 33.855
      vertex 3.40734 18.5111 33.1558
      vertex 3.55846 19.1406 33.855
    endloop
  endfacet
  facet normal 0 0.207912 0.978147
    outer loop
      vertex 3.03702 15.0296 32.0247
      vertex 0.10944 14.1094 32.2202
      vertex 3.10944 14.1094 32.2202
    endloop
  endfacet
  facet normal 0 0.207912 0.978147
    outer loop
      vertex 0.10944 14.1094 32.2202
      vertex 3.03702 15.0296 32.0247
      vertex 0.0370194 15.0296 32.0247
    endloop
  endfacet
  facet normal 0 1 -0
    outer loop
      vertex 3.87577 11 36.5
      vertex 0.689057 11 45
      vertex 3.87577 11 45
    endloop
  endfacet
  facet normal 0 1 0
    outer loop
      vertex 0.689057 11 45
      vertex 3.87577 11 36.5
      vertex 0.689057 11 36.5
    endloop
  endfacet
  facet normal 0 -1 0
    outer loop
      vertex 0.689057 20 36.5
      vertex 3.87577 20 45
      vertex 0.689057 20 45
    endloop
  endfacet
  facet normal 0 -1 -0
    outer loop
      vertex 3.87577 20 45
      vertex 0.689057 20 36.5
      vertex 3.87577 20 36.5
    endloop
  endfacet
  facet normal 1 -0 0
    outer loop
      vertex 23.5 0 45
      vertex 23.5 3 19
      vertex 23.5 3 45
    endloop
  endfacet
  facet normal 1 0 0
    outer loop
      vertex 23.5 3 19
      vertex 23.5 0 45
      vertex 23.5 0 19
    endloop
  endfacet
  facet normal -1 0 0
    outer loop
      vertex 61.5 0 19
      vertex 61.5 3 45
      vertex 61.5 3 19
    endloop
  endfacet
  facet normal -1 -0 0
    outer loop
      vertex 61.5 3 45
      vertex 61.5 0 19
      vertex 61.5 0 45
    endloop
  endfacet
  facet normal -0 0 1
    outer loop
      vertex 48.0176 3 19
      vertex 61.5 0 19
      vertex 61.5 3 19
    endloop
  endfacet
  facet normal -0 0 1
    outer loop
      vertex 42.5 2.3 19
      vertex 61.5 0 19
      vertex 48.0176 3 19
    endloop
  endfacet
  facet normal 0 0 1
    outer loop
      vertex 23.5 0 19
      vertex 36.9824 3 19
      vertex 23.5 3 19
    endloop
  endfacet
  facet normal 0 0 1
    outer loop
      vertex 36.9824 3 19
      vertex 23.5 0 19
      vertex 42.5 2.3 19
    endloop
  endfacet
  facet normal 0 0 1
    outer loop
      vertex 42.5 2.3 19
      vertex 23.5 0 19
      vertex 61.5 0 19
    endloop
  endfacet
  facet normal -0.125857 0.992048 -7.38623e-008
    outer loop
      vertex 48.0176 3 6
      vertex 42.5 2.3 19
      vertex 48.0176 3 19
    endloop
  endfacet
  facet normal -0.125857 0.992048 -7.27762e-008
    outer loop
      vertex 42.5 2.3 19
      vertex 48.0176 3 6
      vertex 42.5 2.3 6
    endloop
  endfacet
  facet normal 0 -0 1
    outer loop
      vertex 42.5 2.3 6
      vertex 48.0176 3 6
      vertex 36.9824 3 6
    endloop
  endfacet
  facet normal 0.125857 0.992048 -7.27762e-008
    outer loop
      vertex 42.5 2.3 6
      vertex 36.9824 3 19
      vertex 42.5 2.3 19
    endloop
  endfacet
  facet normal 0.125857 0.992048 -3.69312e-008
    outer loop
      vertex 36.9824 3 19
      vertex 42.5 2.3 6
      vertex 36.9824 3 6
    endloop
  endfacet
endsolid OpenSCAD_Model
